<svg width="60" height="59" viewBox="0 0 60 59" fill="none" xmlns="http://www.w3.org/2000/svg">
<path d="M58.3328 29.4013C56.5504 27.6018 56.153 24.8679 57.3504 22.6421C58.2053 21.0558 58.2653 19.1696 57.5104 17.5312C56.7579 15.8953 55.278 14.7006 53.5081 14.3041C51.0308 13.7464 49.2034 11.6594 49.0009 9.14607C48.8534 7.35404 47.8735 5.73055 46.3461 4.75893C44.8237 3.78484 42.9288 3.57416 41.2214 4.19133C38.8315 5.05141 36.1567 4.27065 34.6168 2.26793C33.5169 0.840249 31.807 0 29.9921 0C28.1797 0 26.4698 0.840249 25.3699 2.26793C23.8375 4.27313 21.1626 5.05389 18.7728 4.19381C17.0679 3.57911 15.173 3.7898 13.6481 4.76141C12.1232 5.73303 11.1408 7.35652 10.9958 9.14855C10.7908 11.6619 8.96589 13.7513 6.48855 14.3065C4.71866 14.7031 3.23875 15.8978 2.4863 17.5337C1.73384 19.1696 1.79384 21.0583 2.64879 22.6421C3.84621 24.8654 3.44874 27.6018 1.66885 29.4013C0.396427 30.6827 -0.198536 32.4797 0.0589476 34.2594C0.316432 36.039 1.39886 37.5981 2.98377 38.473C5.20363 39.6999 6.36356 42.2157 5.84359 44.6819C5.47611 46.4417 5.95358 48.271 7.14101 49.6292C8.33093 50.99 10.0908 51.7212 11.8957 51.6072C14.4356 51.451 16.7779 52.9456 17.6879 55.2978C18.3353 56.9783 19.7377 58.2598 21.4801 58.7654C23.2175 59.271 25.0974 58.9439 26.5573 57.8805C28.6047 56.3859 31.397 56.3859 33.4419 57.8805C34.9018 58.9463 36.7817 59.2735 38.5191 58.7654C40.2614 58.2598 41.6639 56.9758 42.3138 55.2978C43.2213 52.9456 45.5661 51.4485 48.1035 51.6072C49.9133 51.7212 51.6707 50.99 52.8582 49.6292C54.0456 48.271 54.5256 46.4417 54.1556 44.6819C53.6381 42.2157 54.7955 39.6999 57.0179 38.473C58.6003 37.5956 59.6802 36.039 59.9402 34.2594C60.2002 32.4797 59.6027 30.6827 58.3328 29.4013V29.4013ZM26.8748 42.8601L15.6255 32.0435L20.2677 27.4407L26.8748 33.6521L40.9814 19.3158L45.6236 23.9186L26.8748 42.8601Z" fill="#F8765E"/>
</svg>
